<mxfile host="app.diagrams.net" modified="2023-12-07T08:52:48.522Z" agent="Mozilla/5.0 (Windows NT 10.0; Win64; x64) AppleWebKit/537.36 (KHTML, like Gecko) Chrome/117.0.0.0 Safari/537.36" version="22.1.7" etag="VGe38SOcbBg7RyRQKINw" type="github">
  <diagram name="Page-1" id="4nkYNXuBp-3ZMg_789rJ">
    <mxGraphModel>
      <root>
        <mxCell id="0" />
        <mxCell id="1" parent="0" />
      </root>
    </mxGraphModel>
  </diagram>
</mxfile>
